<?xml version="1.0" encoding="UTF-8"?>
<svg version="1.1" xmlns="http://www.w3.org/2000/svg" width="32" height="32">
<path d="M0 0 C3.5 1.5 3.5 1.5 6 3 C6 3.66 6 4.32 6 5 C4.68 5.33 3.36 5.66 2 6 C4.7175283 5.53413801 7.02841528 4.987525 9.5625 3.875 C12.24749062 2.91115721 13.37141956 3.02645169 16 4 C16 4.66 16 5.32 16 6 C13.97100921 6.92418423 11.92606117 7.81339004 9.875 8.6875 C8.73804687 9.18636719 7.60109375 9.68523438 6.4296875 10.19921875 C2.11894665 11.20571291 0.72549619 10.19390331 -3 8 C-6.75073204 7.74855688 -6.75073204 7.74855688 -10 8 C-10.33 6.02 -10.66 4.04 -11 2 C-7.29034259 -0.47310494 -4.30185433 -0.55899802 0 0 Z M-3 3 C-2.67 3.66 -2.34 4.32 -2 5 C-1.34 4.67 -0.68 4.34 0 4 C-0.99 3.67 -1.98 3.34 -3 3 Z " fill="#000000" transform="translate(14,18)"/>
<path d="M0 0 C0 3.3 0 6.6 0 10 C-4 11 -4 11 -6 10 C-6 6.7 -6 3.4 -6 0 C-4 -1 -4 -1 0 0 Z " fill="#000000" transform="translate(21,5)"/>
</svg>
